<svg width="21" height="20" viewBox="0 0 21 20" fill="none" xmlns="http://www.w3.org/2000/svg">
<path d="M10.5 0C4.69852 0 0 4.5879 0 10.2528C0 14.7899 3.00574 18.6217 7.17926 19.9795C7.70426 20.0696 7.90057 19.762 7.90057 19.4928C7.90057 19.2494 7.88778 18.4425 7.88778 17.5831C5.25 18.0574 4.56796 16.9554 4.35796 16.3795C4.23926 16.0844 3.72796 15.1741 3.28057 14.9307C2.91352 14.7381 2.38852 14.2638 3.26778 14.2514C4.095 14.2389 4.68574 14.9949 4.88296 15.3025C5.82796 16.8538 7.33722 16.4169 7.94074 16.1477C8.03204 15.4817 8.30778 15.0333 8.61 14.7765C6.27352 14.5206 3.83296 13.6362 3.83296 9.71429C3.83296 8.59985 4.23926 7.6771 4.90852 6.95941C4.80352 6.70264 4.43648 5.65151 5.01352 4.24198C5.01352 4.24198 5.89278 3.97273 7.90148 5.29311C8.74148 5.0622 9.63352 4.94719 10.5265 4.94719C11.4185 4.94719 12.3115 5.06309 13.1515 5.29311C15.1602 3.96025 16.0385 4.24198 16.0385 4.24198C16.6165 5.65151 16.2485 6.70264 16.1435 6.95941C16.8128 7.6771 17.22 8.58648 17.22 9.71429C17.22 13.6487 14.7657 14.5197 12.4293 14.7765C12.81 15.0974 13.1378 15.7126 13.1378 16.6737C13.1378 18.0449 13.125 19.1468 13.125 19.4928C13.125 19.762 13.3222 20.083 13.8463 19.9804C17.9952 18.6217 21 14.7765 21 10.2528C21 4.5879 16.3015 0 10.5 0Z" fill="black"/>
</svg>
