<svg width="1013" height="404" viewBox="0 0 1013 404" fill="none" xmlns="http://www.w3.org/2000/svg">
<path d="M3.22205 134.356C3.22205 134.89 2.78929 135.323 2.25546 135.323C1.72162 135.323 1.28886 134.89 1.28886 134.356C1.28886 133.822 1.72162 133.39 2.25546 133.39C2.78929 133.39 3.22205 133.822 3.22205 134.356Z" fill="white" fill-opacity="0.5"/>
<path d="M2.25546 132.101V136.612M0 134.357L4.51076 134.356M3.22205 134.356C3.22205 134.89 2.78929 135.323 2.25546 135.323C1.72162 135.323 1.28886 134.89 1.28886 134.356C1.28886 133.822 1.72162 133.39 2.25546 133.39C2.78929 133.39 3.22205 133.822 3.22205 134.356Z" stroke="white" stroke-opacity="0.4"/>
<path d="M119.213 97.6253C119.213 98.1591 118.781 98.5918 118.247 98.5918C117.713 98.5918 117.28 98.1591 117.28 97.6253C117.28 97.0914 117.713 96.6587 118.247 96.6587C118.781 96.6587 119.213 97.0914 119.213 97.6253Z" fill="white" fill-opacity="0.5"/>
<path d="M118.247 95.3699V99.8806M115.991 97.6263L120.502 97.6253M119.213 97.6253C119.213 98.1591 118.781 98.5918 118.247 98.5918C117.713 98.5918 117.28 98.1591 117.28 97.6253C117.28 97.0914 117.713 96.6587 118.247 96.6587C118.781 96.6587 119.213 97.0914 119.213 97.6253Z" stroke="white" stroke-opacity="0.4"/>
<path d="M226.182 178.175C226.182 178.709 225.75 179.141 225.216 179.141C224.682 179.141 224.249 178.709 224.249 178.175C224.249 177.641 224.682 177.208 225.216 177.208C225.75 177.208 226.182 177.641 226.182 178.175Z" fill="white" fill-opacity="0.5"/>
<path d="M225.216 175.919V180.43M222.96 178.176L227.471 178.175M226.182 178.175C226.182 178.709 225.75 179.141 225.216 179.141C224.682 179.141 224.249 178.709 224.249 178.175C224.249 177.641 224.682 177.208 225.216 177.208C225.75 177.208 226.182 177.641 226.182 178.175Z" stroke="white" stroke-opacity="0.4"/>
<path d="M332.508 138.866C332.508 139.4 332.075 139.833 331.541 139.833C331.007 139.833 330.575 139.4 330.575 138.866C330.575 138.332 331.007 137.9 331.541 137.9C332.075 137.9 332.508 138.332 332.508 138.866Z" fill="white" fill-opacity="0.5"/>
<path d="M331.541 136.611V141.122M329.286 138.867L333.796 138.866M332.508 138.866C332.508 139.4 332.075 139.833 331.541 139.833C331.007 139.833 330.575 139.4 330.575 138.866C330.575 138.332 331.007 137.9 331.541 137.9C332.075 137.9 332.508 138.332 332.508 138.866Z" stroke="white" stroke-opacity="0.4"/>
<path d="M424.656 79.582C424.656 80.1159 424.223 80.5486 423.69 80.5486C423.156 80.5486 422.723 80.1159 422.723 79.582C422.723 79.0482 423.156 78.6155 423.69 78.6155C424.223 78.6155 424.656 79.0482 424.656 79.582Z" fill="white" fill-opacity="0.5"/>
<path d="M423.69 77.3267V81.8374M421.434 79.5831L425.945 79.582M424.656 79.582C424.656 80.1159 424.223 80.5486 423.69 80.5486C423.156 80.5486 422.723 80.1159 422.723 79.582C422.723 79.0482 423.156 78.6155 423.69 78.6155C424.223 78.6155 424.656 79.0482 424.656 79.582Z" stroke="white" stroke-opacity="0.4"/>
<path d="M500.695 193.64C500.695 194.174 500.262 194.606 499.728 194.606C499.194 194.606 498.762 194.174 498.762 193.64C498.762 193.106 499.194 192.673 499.728 192.673C500.262 192.673 500.695 193.106 500.695 193.64Z" fill="white" fill-opacity="0.5"/>
<path d="M499.728 191.385V195.895M497.473 193.641L501.983 193.64M500.695 193.64C500.695 194.174 500.262 194.606 499.728 194.606C499.194 194.606 498.762 194.174 498.762 193.64C498.762 193.106 499.194 192.673 499.728 192.673C500.262 192.673 500.695 193.106 500.695 193.64Z" stroke="white" stroke-opacity="0.4"/>
<path d="M7.73279 33.8297C7.73279 34.3636 7.30003 34.7963 6.7662 34.7963C6.23236 34.7963 5.79961 34.3636 5.79961 33.8297C5.79961 33.2959 6.23236 32.8631 6.7662 32.8631C7.30003 32.8631 7.73279 33.2959 7.73279 33.8297Z" fill="white" fill-opacity="0.5"/>
<path d="M6.7662 31.5743V36.0851M4.51074 33.8308L9.02151 33.8297M7.73279 33.8297C7.73279 34.3636 7.30003 34.7963 6.7662 34.7963C6.23236 34.7963 5.79961 34.3636 5.79961 33.8297C5.79961 33.2959 6.23236 32.8631 6.7662 32.8631C7.30003 32.8631 7.73279 33.2959 7.73279 33.8297Z" stroke="white" stroke-opacity="0.4"/>
<path d="M103.747 2.25538C103.747 2.78922 103.315 3.22197 102.781 3.22197C102.247 3.22197 101.814 2.78922 101.814 2.25538C101.814 1.72155 102.247 1.28879 102.781 1.28879C103.315 1.28879 103.747 1.72155 103.747 2.25538Z" fill="white" fill-opacity="0.5"/>
<path d="M102.781 0V4.51076M100.525 2.25641L105.036 2.25538M103.747 2.25538C103.747 2.78922 103.315 3.22197 102.781 3.22197C102.247 3.22197 101.814 2.78922 101.814 2.25538C101.814 1.72155 102.247 1.28879 102.781 1.28879C103.315 1.28879 103.747 1.72155 103.747 2.25538Z" stroke="white" stroke-opacity="0.4"/>
<path d="M221.672 6.76576C221.672 7.29959 221.239 7.73235 220.705 7.73235C220.171 7.73235 219.739 7.29959 219.739 6.76576C219.739 6.23192 220.171 5.79917 220.705 5.79917C221.239 5.79917 221.672 6.23192 221.672 6.76576Z" fill="white" fill-opacity="0.5"/>
<path d="M220.705 4.51038V9.02114M218.45 6.76679L222.96 6.76576M221.672 6.76576C221.672 7.29959 221.239 7.73235 220.705 7.73235C220.171 7.73235 219.739 7.29959 219.739 6.76576C219.739 6.23192 220.171 5.79917 220.705 5.79917C221.239 5.79917 221.672 6.23192 221.672 6.76576Z" stroke="white" stroke-opacity="0.4"/>
<path d="M297.71 29.3193C297.71 29.8532 297.278 30.2859 296.744 30.2859C296.21 30.2859 295.777 29.8532 295.777 29.3193C295.777 28.7855 296.21 28.3528 296.744 28.3528C297.278 28.3528 297.71 28.7855 297.71 29.3193Z" fill="white" fill-opacity="0.5"/>
<path d="M296.744 27.064V31.5747M294.488 29.3204L298.999 29.3193M297.71 29.3193C297.71 29.8532 297.278 30.2859 296.744 30.2859C296.21 30.2859 295.777 29.8532 295.777 29.3193C295.777 28.7855 296.21 28.3528 296.744 28.3528C297.278 28.3528 297.71 28.7855 297.71 29.3193Z" stroke="white" stroke-opacity="0.4"/>
<path d="M476.208 2.25538C476.208 2.78922 475.775 3.22197 475.241 3.22197C474.707 3.22197 474.275 2.78922 474.275 2.25538C474.275 1.72155 474.707 1.28879 475.241 1.28879C475.775 1.28879 476.208 1.72155 476.208 2.25538Z" fill="white" fill-opacity="0.5"/>
<path d="M475.241 0V4.51076M472.986 2.25641L477.497 2.25538M476.208 2.25538C476.208 2.78922 475.775 3.22197 475.241 3.22197C474.707 3.22197 474.275 2.78922 474.275 2.25538C474.275 1.72155 474.707 1.28879 475.241 1.28879C475.775 1.28879 476.208 1.72155 476.208 2.25538Z" stroke="white" stroke-opacity="0.4"/>
<path d="M629.574 93.1139C629.574 93.6477 629.141 94.0805 628.607 94.0805C628.073 94.0805 627.64 93.6477 627.64 93.1139C627.64 92.5801 628.073 92.1473 628.607 92.1473C629.141 92.1473 629.574 92.5801 629.574 93.1139Z" fill="white" fill-opacity="0.5"/>
<path d="M628.607 90.8585V95.3693M626.352 93.1149L630.862 93.1139M629.574 93.1139C629.574 93.6477 629.141 94.0805 628.607 94.0805C628.073 94.0805 627.64 93.6477 627.64 93.1139C627.64 92.5801 628.073 92.1473 628.607 92.1473C629.141 92.1473 629.574 92.5801 629.574 93.1139Z" stroke="white" stroke-opacity="0.4"/>
<path d="M696.591 127.912C696.591 128.445 696.158 128.878 695.624 128.878C695.09 128.878 694.658 128.445 694.658 127.912C694.658 127.378 695.09 126.945 695.624 126.945C696.158 126.945 696.591 127.378 696.591 127.912Z" fill="white" fill-opacity="0.5"/>
<path d="M695.624 125.656V130.167M693.369 127.913L697.879 127.912M696.591 127.912C696.591 128.445 696.158 128.878 695.624 128.878C695.09 128.878 694.658 128.445 694.658 127.912C694.658 127.378 695.09 126.945 695.624 126.945C696.158 126.945 696.591 127.378 696.591 127.912Z" stroke="white" stroke-opacity="0.4"/>
<path d="M864.778 190.419C864.778 190.952 864.345 191.385 863.811 191.385C863.277 191.385 862.845 190.952 862.845 190.419C862.845 189.885 863.277 189.452 863.811 189.452C864.345 189.452 864.778 189.885 864.778 190.419Z" fill="white" fill-opacity="0.5"/>
<path d="M863.811 188.163V192.674M861.556 190.42L866.066 190.419M864.778 190.419C864.778 190.952 864.345 191.385 863.811 191.385C863.277 191.385 862.845 190.952 862.845 190.419C862.845 189.885 863.277 189.452 863.811 189.452C864.345 189.452 864.778 189.885 864.778 190.419Z" stroke="white" stroke-opacity="0.4"/>
<path d="M625.063 246.481C625.063 247.015 624.63 247.447 624.096 247.447C623.562 247.447 623.13 247.015 623.13 246.481C623.13 245.947 623.562 245.514 624.096 245.514C624.63 245.514 625.063 245.947 625.063 246.481Z" fill="white" fill-opacity="0.5"/>
<path d="M624.096 244.225V248.736M621.841 246.482L626.352 246.481M625.063 246.481C625.063 247.015 624.63 247.447 624.096 247.447C623.562 247.447 623.13 247.015 623.13 246.481C623.13 245.947 623.562 245.514 624.096 245.514C624.63 245.514 625.063 245.947 625.063 246.481Z" stroke="white" stroke-opacity="0.4"/>
<path d="M1007.19 147.889C1007.19 148.423 1006.76 148.856 1006.22 148.856C1005.69 148.856 1005.26 148.423 1005.26 147.889C1005.26 147.355 1005.69 146.922 1006.22 146.922C1006.76 146.922 1007.19 147.355 1007.19 147.889Z" fill="white" fill-opacity="0.5"/>
<path d="M1006.22 145.634V150.144M1003.97 147.89L1008.48 147.889M1007.19 147.889C1007.19 148.423 1006.76 148.856 1006.22 148.856C1005.69 148.856 1005.26 148.423 1005.26 147.889C1005.26 147.355 1005.69 146.922 1006.22 146.922C1006.76 146.922 1007.19 147.355 1007.19 147.889Z" stroke="white" stroke-opacity="0.4"/>
<path d="M889.265 109.225C889.265 109.759 888.832 110.191 888.298 110.191C887.764 110.191 887.331 109.759 887.331 109.225C887.331 108.691 887.764 108.258 888.298 108.258C888.832 108.258 889.265 108.691 889.265 109.225Z" fill="white" fill-opacity="0.5"/>
<path d="M888.298 106.969V111.48M886.042 109.226L890.553 109.225M889.265 109.225C889.265 109.759 888.832 110.191 888.298 110.191C887.764 110.191 887.331 109.759 887.331 109.225C887.331 108.691 887.764 108.258 888.298 108.258C888.832 108.258 889.265 108.691 889.265 109.225Z" stroke="white" stroke-opacity="0.4"/>
<path d="M704.324 38.985C704.324 39.5188 703.891 39.9516 703.357 39.9516C702.823 39.9516 702.39 39.5188 702.39 38.985C702.39 38.4512 702.823 38.0184 703.357 38.0184C703.891 38.0184 704.324 38.4512 704.324 38.985Z" fill="white" fill-opacity="0.5"/>
<path d="M703.357 36.7296V41.2404M701.102 38.986L705.612 38.985M704.324 38.985C704.324 39.5188 703.891 39.9516 703.357 39.9516C702.823 39.9516 702.39 39.5188 702.39 38.985C702.39 38.4512 702.823 38.0184 703.357 38.0184C703.891 38.0184 704.324 38.4512 704.324 38.985Z" stroke="white" stroke-opacity="0.4"/>
<path d="M843.513 11.2767C843.513 11.8106 843.08 12.2433 842.546 12.2433C842.012 12.2433 841.579 11.8106 841.579 11.2767C841.579 10.7429 842.012 10.3102 842.546 10.3102C843.08 10.3102 843.513 10.7429 843.513 11.2767Z" fill="white" fill-opacity="0.5"/>
<path d="M842.546 9.02136V13.5321M840.291 11.2778L844.801 11.2767M843.513 11.2767C843.513 11.8106 843.08 12.2433 842.546 12.2433C842.012 12.2433 841.579 11.8106 841.579 11.2767C841.579 10.7429 842.012 10.3102 842.546 10.3102C843.08 10.3102 843.513 10.7429 843.513 11.2767Z" stroke="white" stroke-opacity="0.4"/>
<path d="M1011.7 47.3626C1011.7 47.8964 1011.27 48.3292 1010.73 48.3292C1010.2 48.3292 1009.77 47.8964 1009.77 47.3626C1009.77 46.8287 1010.2 46.396 1010.73 46.396C1011.27 46.396 1011.7 46.8287 1011.7 47.3626Z" fill="white" fill-opacity="0.5"/>
<path d="M1010.73 45.1072V49.6179M1008.48 47.3636L1012.99 47.3626M1011.7 47.3626C1011.7 47.8964 1011.27 48.3292 1010.73 48.3292C1010.2 48.3292 1009.77 47.8964 1009.77 47.3626C1009.77 46.8287 1010.2 46.396 1010.73 46.396C1011.27 46.396 1011.7 46.8287 1011.7 47.3626Z" stroke="white" stroke-opacity="0.4"/>
<path d="M62.5062 383.093C62.5062 383.627 62.0735 384.06 61.5396 384.06C61.0058 384.06 60.573 383.627 60.573 383.093C60.573 382.559 61.0058 382.126 61.5396 382.126C62.0735 382.126 62.5062 382.559 62.5062 383.093Z" fill="white" fill-opacity="0.5"/>
<path d="M61.5396 380.838V385.348M59.2842 383.094L63.7949 383.093M62.5062 383.093C62.5062 383.627 62.0735 384.06 61.5396 384.06C61.0058 384.06 60.573 383.627 60.573 383.093C60.573 382.559 61.0058 382.126 61.5396 382.126C62.0735 382.126 62.5062 382.559 62.5062 383.093Z" stroke="white" stroke-opacity="0.4"/>
<path d="M322.197 399.202C322.197 399.736 321.764 400.168 321.231 400.168C320.697 400.168 320.264 399.736 320.264 399.202C320.264 398.668 320.697 398.235 321.231 398.235C321.764 398.235 322.197 398.668 322.197 399.202Z" fill="white" fill-opacity="0.5"/>
<path d="M321.231 396.946V401.457M318.975 399.203L323.486 399.202M322.197 399.202C322.197 399.736 321.764 400.168 321.231 400.168C320.697 400.168 320.264 399.736 320.264 399.202C320.264 398.668 320.697 398.235 321.231 398.235C321.764 398.235 322.197 398.668 322.197 399.202Z" stroke="white" stroke-opacity="0.4"/>
<path d="M556.113 401.135C556.113 401.669 555.68 402.102 555.146 402.102C554.612 402.102 554.179 401.669 554.179 401.135C554.179 400.601 554.612 400.169 555.146 400.169C555.68 400.169 556.113 400.601 556.113 401.135Z" fill="white" fill-opacity="0.5"/>
<path d="M555.146 398.88V403.391M552.891 401.136L557.401 401.135M556.113 401.135C556.113 401.669 555.68 402.102 555.146 402.102C554.612 402.102 554.179 401.669 554.179 401.135C554.179 400.601 554.612 400.169 555.146 400.169C555.68 400.169 556.113 400.601 556.113 401.135Z" stroke="white" stroke-opacity="0.4"/>
<path d="M861.556 383.093C861.556 383.627 861.123 384.06 860.589 384.06C860.056 384.06 859.623 383.627 859.623 383.093C859.623 382.559 860.056 382.126 860.589 382.126C861.123 382.126 861.556 382.559 861.556 383.093Z" fill="white" fill-opacity="0.5"/>
<path d="M860.589 380.838V385.348M858.334 383.094L862.845 383.093M861.556 383.093C861.556 383.627 861.123 384.06 860.589 384.06C860.056 384.06 859.623 383.627 859.623 383.093C859.623 382.559 860.056 382.126 860.589 382.126C861.123 382.126 861.556 382.559 861.556 383.093Z" stroke="white" stroke-opacity="0.4"/>
<path d="M137.256 328.963C137.256 329.497 136.823 329.93 136.29 329.93C135.756 329.93 135.323 329.497 135.323 328.963C135.323 328.429 135.756 327.997 136.29 327.997C136.823 327.997 137.256 328.429 137.256 328.963Z" fill="white" fill-opacity="0.5"/>
<path d="M136.29 326.708V331.219M134.034 328.964L138.545 328.963M137.256 328.963C137.256 329.497 136.823 329.93 136.29 329.93C135.756 329.93 135.323 329.497 135.323 328.963C135.323 328.429 135.756 327.997 136.29 327.997C136.823 327.997 137.256 328.429 137.256 328.963Z" stroke="white" stroke-opacity="0.4"/>
<path d="M276.445 301.254C276.445 301.788 276.012 302.221 275.479 302.221C274.945 302.221 274.512 301.788 274.512 301.254C274.512 300.72 274.945 300.287 275.479 300.287C276.012 300.287 276.445 300.72 276.445 301.254Z" fill="white" fill-opacity="0.5"/>
<path d="M275.479 298.999V303.509M273.223 301.255L277.734 301.254M276.445 301.254C276.445 301.788 276.012 302.221 275.479 302.221C274.945 302.221 274.512 301.788 274.512 301.254C274.512 300.72 274.945 300.287 275.479 300.287C276.012 300.287 276.445 300.72 276.445 301.254Z" stroke="white" stroke-opacity="0.4"/>
<path d="M444.633 337.34C444.633 337.874 444.2 338.306 443.666 338.306C443.132 338.306 442.7 337.874 442.7 337.34C442.7 336.806 443.132 336.373 443.666 336.373C444.2 336.373 444.633 336.806 444.633 337.34Z" fill="white" fill-opacity="0.5"/>
<path d="M443.666 335.084V339.595M441.411 337.341L445.921 337.34M444.633 337.34C444.633 337.874 444.2 338.306 443.666 338.306C443.132 338.306 442.7 337.874 442.7 337.34C442.7 336.806 443.132 336.373 443.666 336.373C444.2 336.373 444.633 336.806 444.633 337.34Z" stroke="white" stroke-opacity="0.4"/>
<path d="M540.647 305.766C540.647 306.3 540.215 306.732 539.681 306.732C539.147 306.732 538.714 306.3 538.714 305.766C538.714 305.232 539.147 304.799 539.681 304.799C540.215 304.799 540.647 305.232 540.647 305.766Z" fill="white" fill-opacity="0.5"/>
<path d="M539.681 303.51V308.021M537.425 305.767L541.936 305.766M540.647 305.766C540.647 306.3 540.215 306.732 539.681 306.732C539.147 306.732 538.714 306.3 538.714 305.766C538.714 305.232 539.147 304.799 539.681 304.799C540.215 304.799 540.647 305.232 540.647 305.766Z" stroke="white" stroke-opacity="0.4"/>
<path d="M658.572 310.276C658.572 310.81 658.139 311.242 657.605 311.242C657.071 311.242 656.638 310.81 656.638 310.276C656.638 309.742 657.071 309.309 657.605 309.309C658.139 309.309 658.572 309.742 658.572 310.276Z" fill="white" fill-opacity="0.5"/>
<path d="M657.605 308.02V312.531M655.35 310.277L659.86 310.276M658.572 310.276C658.572 310.81 658.139 311.242 657.605 311.242C657.071 311.242 656.638 310.81 656.638 310.276C656.638 309.742 657.071 309.309 657.605 309.309C658.139 309.309 658.572 309.742 658.572 310.276Z" stroke="white" stroke-opacity="0.4"/>
<path d="M734.61 332.829C734.61 333.363 734.177 333.796 733.644 333.796C733.11 333.796 732.677 333.363 732.677 332.829C732.677 332.295 733.11 331.863 733.644 331.863C734.177 331.863 734.61 332.295 734.61 332.829Z" fill="white" fill-opacity="0.5"/>
<path d="M733.644 330.574V335.085M731.388 332.83L735.899 332.829M734.61 332.829C734.61 333.363 734.177 333.796 733.644 333.796C733.11 333.796 732.677 333.363 732.677 332.829C732.677 332.295 733.11 331.863 733.644 331.863C734.177 331.863 734.61 332.295 734.61 332.829Z" stroke="white" stroke-opacity="0.4"/>
<path d="M913.108 305.766C913.108 306.3 912.675 306.732 912.141 306.732C911.607 306.732 911.175 306.3 911.175 305.766C911.175 305.232 911.607 304.799 912.141 304.799C912.675 304.799 913.108 305.232 913.108 305.766Z" fill="white" fill-opacity="0.5"/>
<path d="M912.141 303.51V308.021M909.886 305.767L914.397 305.766M913.108 305.766C913.108 306.3 912.675 306.732 912.141 306.732C911.607 306.732 911.175 306.3 911.175 305.766C911.175 305.232 911.607 304.799 912.141 304.799C912.675 304.799 913.108 305.232 913.108 305.766Z" stroke="white" stroke-opacity="0.4"/>
</svg>
