<svg width="1372" height="375" viewBox="0 0 1372 375" fill="none" xmlns="http://www.w3.org/2000/svg">
<path d="M12.0001 130.5C12.0001 131.328 11.3285 132 10.5001 132C9.67169 132 9.00011 131.328 9.00011 130.5C9.00011 129.672 9.67169 129 10.5001 129C11.3285 129 12.0001 129.672 12.0001 130.5Z" fill="white" fill-opacity="0.5"/>
<path d="M10.5001 127V134M7 130.502L14 130.5M12.0001 130.5C12.0001 131.328 11.3285 132 10.5001 132C9.67169 132 9.00011 131.328 9.00011 130.5C9.00011 129.672 9.67169 129 10.5001 129C11.3285 129 12.0001 129.672 12.0001 130.5Z" stroke="white" stroke-opacity="0.4"/>
<path d="M172 248.5C172 249.328 171.329 250 170.5 250C169.672 250 169 249.328 169 248.5C169 247.672 169.672 247 170.5 247C171.329 247 172 247.672 172 248.5Z" fill="white" fill-opacity="0.5"/>
<path d="M170.5 245V252M167 248.502L174 248.5M172 248.5C172 249.328 171.329 250 170.5 250C169.672 250 169 249.328 169 248.5C169 247.672 169.672 247 170.5 247C171.329 247 172 247.672 172 248.5Z" stroke="white" stroke-opacity="0.4"/>
<path d="M377 318.5C377 319.328 376.329 320 375.5 320C374.672 320 374 319.328 374 318.5C374 317.672 374.672 317 375.5 317C376.329 317 377 317.672 377 318.5Z" fill="white" fill-opacity="0.5"/>
<path d="M375.5 315V322M372 318.502L379 318.5M377 318.5C377 319.328 376.329 320 375.5 320C374.672 320 374 319.328 374 318.5C374 317.672 374.672 317 375.5 317C376.329 317 377 317.672 377 318.5Z" stroke="white" stroke-opacity="0.4"/>
<path d="M5.00011 368.5C5.00011 369.328 4.32854 370 3.50011 370C2.67169 370 2.00011 369.328 2.00011 368.5C2.00011 367.672 2.67169 367 3.50011 367C4.32854 367 5.00011 367.672 5.00011 368.5Z" fill="white" fill-opacity="0.5"/>
<path d="M3.50011 365V372M0 368.502L7 368.5M5.00011 368.5C5.00011 369.328 4.32854 370 3.50011 370C2.67169 370 2.00011 369.328 2.00011 368.5C2.00011 367.672 2.67169 367 3.50011 367C4.32854 367 5.00011 367.672 5.00011 368.5Z" stroke="white" stroke-opacity="0.4"/>
<path d="M598 215.5C598 216.328 597.329 217 596.5 217C595.672 217 595 216.328 595 215.5C595 214.672 595.672 214 596.5 214C597.329 214 598 214.672 598 215.5Z" fill="white" fill-opacity="0.5"/>
<path d="M596.5 212V219M593 215.502L600 215.5M598 215.5C598 216.328 597.329 217 596.5 217C595.672 217 595 216.328 595 215.5C595 214.672 595.672 214 596.5 214C597.329 214 598 214.672 598 215.5Z" stroke="white" stroke-opacity="0.4"/>
<path d="M415 155.5C415 156.328 414.329 157 413.5 157C412.672 157 412 156.328 412 155.5C412 154.672 412.672 154 413.5 154C414.329 154 415 154.672 415 155.5Z" fill="white" fill-opacity="0.5"/>
<path d="M413.5 152V159M410 155.502L417 155.5M415 155.5C415 156.328 414.329 157 413.5 157C412.672 157 412 156.328 412 155.5C412 154.672 412.672 154 413.5 154C414.329 154 415 154.672 415 155.5Z" stroke="white" stroke-opacity="0.4"/>
<path d="M778 158.5C778 159.328 777.329 160 776.5 160C775.672 160 775 159.328 775 158.5C775 157.672 775.672 157 776.5 157C777.329 157 778 157.672 778 158.5Z" fill="white" fill-opacity="0.5"/>
<path d="M776.5 155V162M773 158.502L780 158.5M778 158.5C778 159.328 777.329 160 776.5 160C775.672 160 775 159.328 775 158.5C775 157.672 775.672 157 776.5 157C777.329 157 778 157.672 778 158.5Z" stroke="white" stroke-opacity="0.4"/>
<path d="M944 283.5C944 284.328 943.329 285 942.5 285C941.672 285 941 284.328 941 283.5C941 282.672 941.672 282 942.5 282C943.329 282 944 282.672 944 283.5Z" fill="white" fill-opacity="0.5"/>
<path d="M942.5 280V287M939 283.502L946 283.5M944 283.5C944 284.328 943.329 285 942.5 285C941.672 285 941 284.328 941 283.5C941 282.672 941.672 282 942.5 282C943.329 282 944 282.672 944 283.5Z" stroke="white" stroke-opacity="0.4"/>
<path d="M1109 222.5C1109 223.328 1108.33 224 1107.5 224C1106.67 224 1106 223.328 1106 222.5C1106 221.672 1106.67 221 1107.5 221C1108.33 221 1109 221.672 1109 222.5Z" fill="white" fill-opacity="0.5"/>
<path d="M1107.5 219V226M1104 222.502L1111 222.5M1109 222.5C1109 223.328 1108.33 224 1107.5 224C1106.67 224 1106 223.328 1106 222.5C1106 221.672 1106.67 221 1107.5 221C1108.33 221 1109 221.672 1109 222.5Z" stroke="white" stroke-opacity="0.4"/>
<path d="M1252 130.5C1252 131.328 1251.33 132 1250.5 132C1249.67 132 1249 131.328 1249 130.5C1249 129.672 1249.67 129 1250.5 129C1251.33 129 1252 129.672 1252 130.5Z" fill="white" fill-opacity="0.5"/>
<path d="M1250.5 127V134M1247 130.502L1254 130.5M1252 130.5C1252 131.328 1251.33 132 1250.5 132C1249.67 132 1249 131.328 1249 130.5C1249 129.672 1249.67 129 1250.5 129C1251.33 129 1252 129.672 1252 130.5Z" stroke="white" stroke-opacity="0.4"/>
<path d="M1370 307.5C1370 308.328 1369.33 309 1368.5 309C1367.67 309 1367 308.328 1367 307.5C1367 306.672 1367.67 306 1368.5 306C1369.33 306 1370 306.672 1370 307.5Z" fill="white" fill-opacity="0.5"/>
<path d="M1368.5 304V311M1365 307.502L1372 307.5M1370 307.5C1370 308.328 1369.33 309 1368.5 309C1367.67 309 1367 308.328 1367 307.5C1367 306.672 1367.67 306 1368.5 306C1369.33 306 1370 306.672 1370 307.5Z" stroke="white" stroke-opacity="0.4"/>
<path d="M1156 371.5C1156 372.328 1155.33 373 1154.5 373C1153.67 373 1153 372.328 1153 371.5C1153 370.672 1153.67 370 1154.5 370C1155.33 370 1156 370.672 1156 371.5Z" fill="white" fill-opacity="0.5"/>
<path d="M1154.5 368V375M1151 371.502L1158 371.5M1156 371.5C1156 372.328 1155.33 373 1154.5 373C1153.67 373 1153 372.328 1153 371.5C1153 370.672 1153.67 370 1154.5 370C1155.33 370 1156 370.672 1156 371.5Z" stroke="white" stroke-opacity="0.4"/>
<path d="M128 46.5C128 47.3284 127.329 48 126.5 48C125.672 48 125 47.3284 125 46.5C125 45.6716 125.672 45 126.5 45C127.329 45 128 45.6716 128 46.5Z" fill="white" fill-opacity="0.5"/>
<path d="M126.5 43V50M123 46.5016L130 46.5M128 46.5C128 47.3284 127.329 48 126.5 48C125.672 48 125 47.3284 125 46.5C125 45.6716 125.672 45 126.5 45C127.329 45 128 45.6716 128 46.5Z" stroke="white" stroke-opacity="0.4"/>
<path d="M344 3.5C344 4.32843 343.329 5 342.5 5C341.672 5 341 4.32843 341 3.5C341 2.67157 341.672 2 342.5 2C343.329 2 344 2.67157 344 3.5Z" fill="white" fill-opacity="0.5"/>
<path d="M342.5 0V7M339 3.5016L346 3.5M344 3.5C344 4.32843 343.329 5 342.5 5C341.672 5 341 4.32843 341 3.5C341 2.67157 341.672 2 342.5 2C343.329 2 344 2.67157 344 3.5Z" stroke="white" stroke-opacity="0.4"/>
<path d="M605 59.5C605 60.3284 604.329 61 603.5 61C602.672 61 602 60.3284 602 59.5C602 58.6716 602.672 58 603.5 58C604.329 58 605 58.6716 605 59.5Z" fill="white" fill-opacity="0.5"/>
<path d="M603.5 56V63M600 59.5016L607 59.5M605 59.5C605 60.3284 604.329 61 603.5 61C602.672 61 602 60.3284 602 59.5C602 58.6716 602.672 58 603.5 58C604.329 58 605 58.6716 605 59.5Z" stroke="white" stroke-opacity="0.4"/>
<path d="M754 10.5C754 11.3284 753.329 12 752.5 12C751.672 12 751 11.3284 751 10.5C751 9.67157 751.672 9 752.5 9C753.329 9 754 9.67157 754 10.5Z" fill="white" fill-opacity="0.5"/>
<path d="M752.5 7V14M749 10.5016L756 10.5M754 10.5C754 11.3284 753.329 12 752.5 12C751.672 12 751 11.3284 751 10.5C751 9.67157 751.672 9 752.5 9C753.329 9 754 9.67157 754 10.5Z" stroke="white" stroke-opacity="0.4"/>
<path d="M937 17.5C937 18.3284 936.329 19 935.5 19C934.672 19 934 18.3284 934 17.5C934 16.6716 934.672 16 935.5 16C936.329 16 937 16.6716 937 17.5Z" fill="white" fill-opacity="0.5"/>
<path d="M935.5 14V21M932 17.5016L939 17.5M937 17.5C937 18.3284 936.329 19 935.5 19C934.672 19 934 18.3284 934 17.5C934 16.6716 934.672 16 935.5 16C936.329 16 937 16.6716 937 17.5Z" stroke="white" stroke-opacity="0.4"/>
<path d="M1055 52.5C1055 53.3284 1054.33 54 1053.5 54C1052.67 54 1052 53.3284 1052 52.5C1052 51.6716 1052.67 51 1053.5 51C1054.33 51 1055 51.6716 1055 52.5Z" fill="white" fill-opacity="0.5"/>
<path d="M1053.5 49V56M1050 52.5016L1057 52.5M1055 52.5C1055 53.3284 1054.33 54 1053.5 54C1052.67 54 1052 53.3284 1052 52.5C1052 51.6716 1052.67 51 1053.5 51C1054.33 51 1055 51.6716 1055 52.5Z" stroke="white" stroke-opacity="0.4"/>
<path d="M1332 10.5C1332 11.3284 1331.33 12 1330.5 12C1329.67 12 1329 11.3284 1329 10.5C1329 9.67157 1329.67 9 1330.5 9C1331.33 9 1332 9.67157 1332 10.5Z" fill="white" fill-opacity="0.5"/>
<path d="M1330.5 7V14M1327 10.5016L1334 10.5M1332 10.5C1332 11.3284 1331.33 12 1330.5 12C1329.67 12 1329 11.3284 1329 10.5C1329 9.67157 1329.67 9 1330.5 9C1331.33 9 1332 9.67157 1332 10.5Z" stroke="white" stroke-opacity="0.4"/>
</svg>
